<svg xmlns="http://www.w3.org/2000/svg" width="330.006" height="180.068" viewBox="0 0 330.006 180.068">
  <g id="Grupo_3496" data-name="Grupo 3496" transform="translate(0 -0.035)">
    <path id="Trazado_2164" data-name="Trazado 2164" d="M351.51,303.349a54.107,54.107,0,0,1-4.709,9.057,38.963,38.963,0,0,1-2.852,3.923.2.2,0,0,1-.032.034H25l.043-.034c.287-.224,1.971-1.587,4.591-3.923,1.88-1.673,4.238-3.848,6.887-6.465C58.184,284.634,99.8,234.2,65.14,188c-32.217-42.95,2.471-50.744,25.353-51.653a65.373,65.373,0,0,1,25.787,4.215,229.1,229.1,0,0,0,55.065,13c.826.092,1.659.184,2.5.267a241.081,241.081,0,0,0,40.112.729h0c.393-.023.789-.052,1.188-.08a238.355,238.355,0,0,0,39.234-6.069c.835-.2,1.659-.4,2.479-.588,42.938-9.935,82.522,23.924,72.625,62.188-3.659,14.153-2.729,29.239,9.47,41.443C358.928,271.37,356.509,290.99,351.51,303.349Z" transform="translate(-25 -136.26)" fill="#6c63ff" opacity="0.1"/>
    <path id="Trazado_2165" data-name="Trazado 2165" d="M351.617,706.432a54.1,54.1,0,0,1-4.709,9.057,38.964,38.964,0,0,1-2.852,3.923H25.15c.287-.224,1.971-1.587,4.591-3.923,1.88-1.673,4.238-3.848,6.887-6.465l33.612-6.945a6.538,6.538,0,0,1,1.32-.135l35.833-.052h.037l17.749-.023h.04l14.979-.017h19.849L201.2,701.8h17.708l7.068-.08h2.336l20.558-.029H258.6l23.746-.032h7.071l22.492-.032,18.986-.023a6.732,6.732,0,0,1,1.57.187Z" transform="translate(-25.107 -539.343)" fill="#454b69"/>
    <path id="Trazado_2166" data-name="Trazado 2166" d="M29.741,750H346.908a38.979,38.979,0,0,1-2.852,3.923H25.15C25.431,753.685,27.116,752.322,29.741,750Z" transform="translate(-25.107 -573.854)" fill="none"/>
    <path id="Trazado_2167" data-name="Trazado 2167" d="M29.741,750H346.908a38.979,38.979,0,0,1-2.852,3.923H25.15C25.431,753.685,27.116,752.322,29.741,750Z" transform="translate(-25.107 -573.854)" opacity="0.4"/>
    <path id="Trazado_2168" data-name="Trazado 2168" d="M554.315,234.116l-.637.123-28.8,5.533c-8.365,1.607-16.85,3.223-25.347,2.606-6.155-.448-11.906-2.273-17.82-3.874-3.343-.907-6.887-1.268-8.021-5.01-1.564-5.165.981-12.813,1.581-18.047.574-5.137.913-10.4-.109-15.479a27.519,27.519,0,0,0-.9-3.369c-1.024-3.039-2.634-6.2-1.765-9.283.686-2.448,2.778-4.2,4.735-5.814,3.834-3.157,7.748-6.695,9.269-11.427.746-2.3.887-4.766,1.69-7.045,1.524-4.333,5.352-7.573,9.61-9.289s8.942-2.08,13.536-2.08a91.7,91.7,0,0,1,12.125.806,34.732,34.732,0,0,1,12.669,3.694c3.854,2.175,7.1,5.739,8,10.084,1.271,6.144-2.258,12.687-.364,18.653.953,3.016,3.157,5.452,4.686,8.213a19.563,19.563,0,0,1,1.435,15.209c-1.831,5.673-6.313,11.413-4.018,16.914,1.461,3.5,5.191,5.366,7.791,8.138Q554.014,233.743,554.315,234.116Z" transform="translate(-343.908 -147.216)" fill="#454b69"/>
    <path id="Trazado_2169" data-name="Trazado 2169" d="M556,319.913v.847l-28.8,5.533c-8.365,1.607-16.85,3.223-25.347,2.606-6.155-.448-11.906-2.273-17.82-3.874-3.343-.907-6.887-1.268-8.021-5.01-1.564-5.165.981-12.813,1.581-18.047.574-5.137,9.41-23.89,8.388-28.966l52.8,2.3c.356,2.8,14.311,16.876,13.441,19.565-1.831,5.673-6.313,11.413-4.017,16.914C549.674,315.273,553.4,317.141,556,319.913Z" transform="translate(-346.234 -233.735)" opacity="0.1"/>
    <path id="Trazado_2170" data-name="Trazado 2170" d="M525.363,345.074c.313,1.776.479,3.731-.428,5.28-1.208,2.078-3.842,2.741-6.2,3.211l-8.178,1.636a3.174,3.174,0,0,0-1.564.62,2.736,2.736,0,0,0-.729,1.788c-.33,2.961.717,5.88,1.673,8.7,1.931,5.713,3.553,11.547,5.995,17.06s5.794,10.775,10.577,14.46,11.114,5.647,16.971,4.207c5.1-1.254,9.286-4.855,12.893-8.675,2.976-3.157,5.759-6.6,7.2-10.7a38.084,38.084,0,0,0,1.633-8.775l1.452-13.648c.227-2.135.376-4.537-1.01-6.175a7.356,7.356,0,0,0-2.278-1.644c-3.139-1.667-6.445-3.045-9.367-5.053s-5.513-4.775-6.4-8.207c-.531-2.06-.436-4.3-1.34-6.224a8.4,8.4,0,0,0-5.452-4.25,18.6,18.6,0,0,0-7.082-.287c-2.365.267-11.479.95-12.457,3.616-.525,1.435,1.653,4.514,2.169,5.926A41.367,41.367,0,0,1,525.363,345.074Z" transform="translate(-369.542 -273.095)" fill="#efb7b9"/>
    <path id="Trazado_2171" data-name="Trazado 2171" d="M525.363,345.074c.313,1.776.479,3.731-.428,5.28-1.208,2.078-3.842,2.741-6.2,3.211l-8.178,1.636a3.174,3.174,0,0,0-1.564.62,2.736,2.736,0,0,0-.729,1.788c-.33,2.961.717,5.88,1.673,8.7,1.931,5.713,3.553,11.547,5.995,17.06s5.794,10.775,10.577,14.46,11.114,5.647,16.971,4.207c5.1-1.254,9.286-4.855,12.893-8.675,2.976-3.157,5.759-6.6,7.2-10.7a38.084,38.084,0,0,0,1.633-8.775l1.452-13.648c.227-2.135.376-4.537-1.01-6.175a7.356,7.356,0,0,0-2.278-1.644c-3.139-1.667-6.445-3.045-9.367-5.053s-5.513-4.775-6.4-8.207c-.531-2.06-.436-4.3-1.34-6.224a8.4,8.4,0,0,0-5.452-4.25,18.6,18.6,0,0,0-7.082-.287c-2.365.267-11.479.95-12.457,3.616-.525,1.435,1.653,4.514,2.169,5.926A41.367,41.367,0,0,1,525.363,345.074Z" transform="translate(-369.542 -273.095)" opacity="0.1"/>
    <path id="Trazado_2172" data-name="Trazado 2172" d="M535.772,425.743l4.8-10.153c2.247-4.758,4.543-9.757,4.3-15.011-.046-1.045-.057-2.35.861-2.824a2.462,2.462,0,0,1,1.26-.161,50.96,50.96,0,0,1,14.781,2.99,5.865,5.865,0,0,1,2.511,1.452,5.993,5.993,0,0,1,1.128,2.669,77.92,77.92,0,0,1,1.644,9.719c.861,8.1.433,16.268,0,24.392l-1.274,24.8a2.37,2.37,0,0,1-.209,1.022,2.206,2.206,0,0,1-1.667.875,36.2,36.2,0,0,1-7.481.241c-17.562-.666-35.216-1.687-52.664.442q.118-3.871-.123-7.748c-.692-11.16-3.584-22.047-6.425-32.86-1.656-6.313-3.26-13.2-.594-19.149a8.2,8.2,0,0,1,1.661-2.531,9.442,9.442,0,0,1,4.213-2.115,26.81,26.81,0,0,1,8.118-.918L528.7,440.269c.826,1.8,1.507,3.7,2.33,5.478.74-3.073-.149-6.675.74-10.006A63.016,63.016,0,0,1,535.772,425.743Z" transform="translate(-360.268 -322.561)" fill="#fff"/>
    <path id="Trazado_2173" data-name="Trazado 2173" d="M482.444,451.166a11.289,11.289,0,0,0,8.609-3.8,26.6,26.6,0,0,0,4.939-8.322,82.066,82.066,0,0,0,4.244-13.232,31.937,31.937,0,0,0,.878-11.722c-.821-5.381-3.865-10.27-4.385-15.688a2.863,2.863,0,0,1,.729-2.626,3.027,3.027,0,0,1,1.676-.436c5.412-.321,11.358-.261,15.551,3.174,1.277,1.045,2.313,2.35,3.561,3.426,2.973,2.583,7.174,3.9,9.082,7.326a25.417,25.417,0,0,1,1.449,3.831,35.244,35.244,0,0,0,4.878,8.348c-1.828,7.714-3.929,15.433-5.756,23.146a101.221,101.221,0,0,1-3.831,13.4c-1.1,2.841-2.488,5.739-2.149,8.781a20.052,20.052,0,0,0,.881,3.5,40.175,40.175,0,0,1,1.69,12.492l-81.882.2c3.923-5.624,5.073-12.523,4.675-19.367a21.162,21.162,0,0,0-2.583-9.418c-2.6-4.448-7.174-7.346-11.682-9.828-3.157-1.722-6.546,7.966-9.958,6.856.551-3.9.8-18.94.574-22.862a10.476,10.476,0,0,1,.207-3.834c.27-.841.766-1.593,1.1-2.41,1.346-3.274.063-7.461,2.238-10.247,1.5-1.937,4.141-2.488,6.284-3.682,2.2-1.228,3.9-3.157,5.82-4.8a25.882,25.882,0,0,1,13.246-5.914,16.684,16.684,0,0,1,2.528,7.461c.146,1.667.04,3.357.273,5.016a24.7,24.7,0,0,0,2.169,6.434c3.837,8.663,7.688,17.353,12.549,25.488a27,27,0,0,0,4.861,6.379A11.109,11.109,0,0,0,482.444,451.166Z" transform="translate(-308.831 -320.879)" fill="#6c63ff"/>
    <path id="Trazado_2174" data-name="Trazado 2174" d="M482.444,451.166a11.289,11.289,0,0,0,8.609-3.8,26.6,26.6,0,0,0,4.939-8.322,82.066,82.066,0,0,0,4.244-13.232,31.937,31.937,0,0,0,.878-11.722c-.821-5.381-3.865-10.27-4.385-15.688a2.863,2.863,0,0,1,.729-2.626,3.027,3.027,0,0,1,1.676-.436c5.412-.321,11.358-.261,15.551,3.174,1.277,1.045,2.313,2.35,3.561,3.426,2.973,2.583,7.174,3.9,9.082,7.326a25.417,25.417,0,0,1,1.449,3.831,35.244,35.244,0,0,0,4.878,8.348c-1.828,7.714-3.929,15.433-5.756,23.146a101.221,101.221,0,0,1-3.831,13.4c-1.1,2.841-2.488,5.739-2.149,8.781a20.052,20.052,0,0,0,.881,3.5,40.175,40.175,0,0,1,1.69,12.492l-81.882.2c3.923-5.624,5.073-12.523,4.675-19.367a21.162,21.162,0,0,0-2.583-9.418c-2.6-4.448-7.174-7.346-11.682-9.828-3.157-1.722-6.546,7.966-9.958,6.856.551-3.9.8-18.94.574-22.862a10.476,10.476,0,0,1,.207-3.834c.27-.841.766-1.593,1.1-2.41,1.346-3.274.063-7.461,2.238-10.247,1.5-1.937,4.141-2.488,6.284-3.682,2.2-1.228,3.9-3.157,5.82-4.8a25.882,25.882,0,0,1,13.246-5.914,16.684,16.684,0,0,1,2.528,7.461c.146,1.667.04,3.357.273,5.016a24.7,24.7,0,0,0,2.169,6.434c3.837,8.663,7.688,17.353,12.549,25.488a27,27,0,0,0,4.861,6.379A11.109,11.109,0,0,0,482.444,451.166Z" transform="translate(-308.831 -320.879)" opacity="0.1"/>
    <circle id="Elipse_14" data-name="Elipse 14" cx="24.598" cy="24.598" r="24.598" transform="translate(144.684 22.13)" fill="#efb7b9"/>
    <path id="Trazado_2175" data-name="Trazado 2175" d="M521.5,241.962c.674-6.365-1.971-12.592-4.967-18.248a36.765,36.765,0,0,1-3.693-8.368c-.72-2.97-.514-6.333,1.329-8.775,1.567-2.078,4.052-3.2,6.351-4.419,6.488-3.444,12.42-8.506,15.272-15.275-1.613.878-1.194,3.5.23,4.655s3.363,1.38,5.114,1.931c6.382,2.009,10.21,8.374,13.281,14.319a6.844,6.844,0,0,1,1.007,3.088,6.264,6.264,0,0,1-1.027,2.993c-1.515,2.7-3.369,5.289-4.058,8.3-.789,3.444.043,7.065,1.125,10.443,1.148,3.593,2.672,7.214,5.426,9.791s7.028,3.857,10.417,2.192c-3.383-5.817-6.887-12.316-5.567-18.911.637-3.157,2.35-6.026,3.079-9.166,1.389-5.989-.924-12.15-3.194-17.866l-6.784-17.06c-1.036-2.608-2.215-5.392-4.591-6.87a12.432,12.432,0,0,0-5.435-1.435c-6.061-.539-12.339-.362-17.981,1.894C516.556,179.286,510.11,189.41,505,199.23c-1.532,2.941-3.045,6.066-2.982,9.384a26.039,26.039,0,0,0,.956,5.363c1.682,7.22,1.773,14.7,1.86,22.113.066,5.688-.23,11.048-2.718,16.228,3.409.677,8.353,2.505,11.728,1.168C518.24,251.747,520.949,246.39,521.5,241.962Z" transform="translate(-365.128 -162.454)" fill="#454b69"/>
    <g id="Grupo_3492" data-name="Grupo 3492" transform="translate(136.872 23.969)" opacity="0.1">
      <path id="Trazado_2176" data-name="Trazado 2176" d="M504.782,320.714q.017-1.214,0-2.451c-.086-7.412-.178-14.893-1.86-22.113a37.332,37.332,0,0,1-.878-4.27,11.172,11.172,0,0,0-.077,1.489,26.039,26.039,0,0,0,.956,5.363C504.6,305.91,504.7,313.345,504.782,320.714Z" transform="translate(-501.966 -271.167)"/>
      <path id="Trazado_2177" data-name="Trazado 2177" d="M712.519,311.864a17.364,17.364,0,0,0,.373-5.114,15.94,15.94,0,0,1-.373,2.531c-.729,3.157-2.442,6-3.079,9.166a15.2,15.2,0,0,0-.23,4.241,15.045,15.045,0,0,1,.23-1.659C710.077,317.864,711.79,315.009,712.519,311.864Z" transform="translate(-649.699 -281.77)"/>
      <path id="Trazado_2178" data-name="Trazado 2178" d="M581.152,242.829a4.135,4.135,0,0,0,.224-1.266,6.915,6.915,0,0,0-1.007-3.088c-3.07-5.946-6.887-12.3-13.281-14.319-1.75-.551-3.687-.775-5.114-1.931a3.639,3.639,0,0,1-1.257-2.525c-3.111,5.711-8.454,10.078-14.245,13.146-2.3,1.22-4.784,2.342-6.35,4.419a9.789,9.789,0,0,0-1.644,6.947,8.784,8.784,0,0,1,1.644-4.365c1.567-2.078,4.052-3.2,6.35-4.419,5.791-3.068,11.134-7.435,14.245-13.146a3.639,3.639,0,0,0,1.257,2.525c1.435,1.148,3.363,1.38,5.114,1.931,6.382,2.009,10.21,8.374,13.281,14.319a11.3,11.3,0,0,1,.783,1.771Z" transform="translate(-527.95 -219.7)"/>
      <path id="Trazado_2179" data-name="Trazado 2179" d="M676.206,365.961c-2.755-2.583-4.273-6.2-5.426-9.791a28.345,28.345,0,0,1-1.377-6.23,22.689,22.689,0,0,0,1.377,8.813c1.148,3.593,2.672,7.214,5.426,9.791s7.028,3.857,10.417,2.192c-.407-.7-.812-1.406-1.214-2.121C682.261,369.5,678.645,368.24,676.206,365.961Z" transform="translate(-621.314 -312.566)"/>
      <path id="Trazado_2180" data-name="Trazado 2180" d="M521.722,402.372c-.554,4.428-3.263,9.785-7.673,11.536-3.062,1.214-7.421-.181-10.747-.953a24.856,24.856,0,0,1-.981,2.367c3.409.677,8.353,2.505,11.728,1.168,4.411-1.75,7.12-7.108,7.673-11.536a19.942,19.942,0,0,0,.063-3.335C521.768,401.87,521.742,402.122,521.722,402.372Z" transform="translate(-502.218 -349.416)"/>
    </g>
    <path id="Trazado_2181" data-name="Trazado 2181" d="M640.6,648.569c-4.434-.7-8.933-2.06-13.329-1.148a18.53,18.53,0,0,0-7,3.329,8.056,8.056,0,0,1,4.293,5.894,24.1,24.1,0,0,1,1,5.269,8.02,8.02,0,0,1-1.354,5.1c5.59.551,11.008-.826,16.46-2.172a4.508,4.508,0,0,0,1.742-.7,3.739,3.739,0,0,0,1.119-2.982,20.415,20.415,0,0,0-1.11-5.759C641.758,653.138,641.264,650.813,640.6,648.569Z" transform="translate(-449.449 -500.494)" fill="#fff"/>
    <path id="Trazado_2182" data-name="Trazado 2182" d="M711.545,483.055c2.2.287,3.908,2.063,5.165,3.888,3.527,5.079,5.048,11.237,6.741,17.186a228.759,228.759,0,0,0,7.424,21.844,32.874,32.874,0,0,0,2.227,4.792,13.4,13.4,0,0,1,1.882,3.67c.758,3.254-1.926,6.313-4.723,8.127a18.7,18.7,0,0,1-4.835,2.33,28.8,28.8,0,0,1-5.142.878l-15.929,1.722c-7.332.8-14.73,1.6-22.065.826-.462-1.607.445-2.743.379-4.416a9.863,9.863,0,0,0-1.045-3.412,21.808,21.808,0,0,1-1.7-6.173,8.371,8.371,0,0,0-.41-2.316,2.171,2.171,0,0,0-1.722-1.435c4.3-.428,7.573-1.24,11.877-1.67a10.6,10.6,0,0,0,4.623-1.191c1.69-1.053,2.637-2.953,3.389-4.8,1.862-4.563,3.062-9.59,2.083-14.423-.8-3.963-3.045-7.653-3.033-11.7a17.5,17.5,0,0,1,1.791-6.945c1.027-2.33,2.367-4.712,4.623-5.894S709,482.711,711.545,483.055Z" transform="translate(-490.463 -383.382)" fill="#6c63ff"/>
    <path id="Trazado_2183" data-name="Trazado 2183" d="M711.545,483.055c2.2.287,3.908,2.063,5.165,3.888,3.527,5.079,5.048,11.237,6.741,17.186a228.759,228.759,0,0,0,7.424,21.844,32.874,32.874,0,0,0,2.227,4.792,13.4,13.4,0,0,1,1.882,3.67c.758,3.254-1.926,6.313-4.723,8.127a18.7,18.7,0,0,1-4.835,2.33,28.8,28.8,0,0,1-5.142.878l-15.929,1.722c-7.332.8-14.73,1.6-22.065.826-.462-1.607.445-2.743.379-4.416a9.863,9.863,0,0,0-1.045-3.412,21.808,21.808,0,0,1-1.7-6.173,8.371,8.371,0,0,0-.41-2.316,2.171,2.171,0,0,0-1.722-1.435c4.3-.428,7.573-1.24,11.877-1.67a10.6,10.6,0,0,0,4.623-1.191c1.69-1.053,2.637-2.953,3.389-4.8,1.862-4.563,3.062-9.59,2.083-14.423-.8-3.963-3.045-7.653-3.033-11.7a17.5,17.5,0,0,1,1.791-6.945c1.027-2.33,2.367-4.712,4.623-5.894S709,482.711,711.545,483.055Z" transform="translate(-490.463 -383.382)" opacity="0.08"/>
    <path id="Trazado_2184" data-name="Trazado 2184" d="M442.43,360.035c1.042-2.474,2.1-5.028,2.129-7.711.032-2.9-1.148-5.656-2.049-8.411a48.635,48.635,0,0,1-2.212-10.385,1.435,1.435,0,0,1,.143-1,1.71,1.71,0,0,1,1.1-.494c1.986-.453,3.487-2.058,4.726-3.673a40.272,40.272,0,0,0,4.838-8.081c.95-2.115,2.235-4.695,4.554-4.715a131.537,131.537,0,0,1-3.466,12.985c2.425-.62,4.729-1.521,7.154-2.141a4.284,4.284,0,0,1,1.469-.2,2.217,2.217,0,0,1,1.5,3.309c1.185,1.389,3.157,1.762,4.706,2.715s2.663,3.312,1.286,4.508a3.842,3.842,0,0,0-.806.694c-.666,1.027.964,2.207.829,3.423-.109,1-1.386,1.461-2.353,1.2a10.589,10.589,0,0,1-2.583-1.518,2.7,2.7,0,0,0-2.821-.31,22.531,22.531,0,0,1-1.633,7.912c-.428.9-.976,1.739-1.32,2.672a13.169,13.169,0,0,0-.608,3.137l-1.042,9.524C451,364.477,446.545,362.988,442.43,360.035Z" transform="translate(-321.099 -264.089)" fill="#efb7b9"/>
    <path id="Trazado_2185" data-name="Trazado 2185" d="M440.942,470.871l-.915-6.2a7.565,7.565,0,0,1,1.1-5.636,37.724,37.724,0,0,0,16.127,3.208,2.519,2.519,0,0,0,2.037-.646,4.676,4.676,0,0,1,.574,4.241c-.4,1.389-1.182,2.64-1.7,3.995a5.694,5.694,0,0,1-.973,1.963,4.2,4.2,0,0,1-3.174.973,20.291,20.291,0,0,1-3.581-.341C447.375,471.864,444,470.323,440.942,470.871Z" transform="translate(-320.825 -366.389)" fill="#fff"/>
    <path id="Trazado_2186" data-name="Trazado 2186" d="M440.056,491.982q-5.9-.672-11.717-1.894a23.7,23.7,0,0,0-5.762-.766c-1.263.052-2.62.3-3.73-.321a17.961,17.961,0,0,1-.146,11.174c-.766,2.152-1.934,4.158-2.5,6.373-1.171,4.634.436,9.688-1.027,14.239a3.6,3.6,0,0,1-.884,1.584c-.448.41-1.059.623-1.472,1.068a3.644,3.644,0,0,0-.649,2.531l-.026,7.906c-.017,5.033.049,10.371,2.706,14.635a13.9,13.9,0,0,0,14.962,5.923,11.122,11.122,0,0,0,4.063-1.989,18.971,18.971,0,0,0,4.359-5.906,25.34,25.34,0,0,0,3.332-8.13,23.1,23.1,0,0,0-.092-6.227c-1.3-11.479-4.112-22.86-3.507-34.381A10.42,10.42,0,0,1,440.056,491.982Z" transform="translate(-301.048 -387.751)" fill="#6c63ff"/>
    <path id="Trazado_2187" data-name="Trazado 2187" d="M480.43,662.216a34.79,34.79,0,0,1-5.989,0c-1.435-.172-2.835-.525-4.259-.766a27.293,27.293,0,0,0-21.978,6.107c-1.1.941-2.215,2.385-1.607,3.7.654,1.418,2.654,1.377,4.2,1.113a12.625,12.625,0,0,0-4.3,3.366,2.541,2.541,0,0,0-.755,1.828c.175,1.42,2.1,1.679,3.53,1.555a1.188,1.188,0,0,0,.439,1.722,2.945,2.945,0,0,0,1.994.146,14.786,14.786,0,0,0,4.236-1.466,1.614,1.614,0,0,0,.861,1.877,3.546,3.546,0,0,0,2.212.2c3.507-.574,6.434-3.013,9.854-3.972,5.47-1.53,11.192.91,16.876,1.082a11.775,11.775,0,0,0,5.226-.861c1.989-.9,3.593-2.6,5.693-3.2,2.333-.666,5.01.1,7.145-1.05,1.552-.835.152-7.272-.244-8.511-.726-2.267-1.455-3.771-3.874-4C493.561,660.488,486.6,661.86,480.43,662.216Z" transform="translate(-324.99 -510.35)" fill="#efb7b9"/>
    <path id="Trazado_2188" data-name="Trazado 2188" d="M619.88,656.61s9.266,7.843,3.92,16.4l10.331-3.567v-7.487c0-.356-3.923-5.7-3.923-5.7l-4.634-.715Z" transform="translate(-449.171 -506.501)" fill="#fff"/>
    <path id="Trazado_2189" data-name="Trazado 2189" d="M238.964,521.32h3.475a7.174,7.174,0,0,1,7.174,7.174v10.649H231.79V528.494A7.174,7.174,0,0,1,238.964,521.32Z" transform="translate(-165.275 -371.695)" fill="#3f3d56"/>
    <path id="Trazado_2190" data-name="Trazado 2190" d="M238.964,521.32h3.475a7.174,7.174,0,0,1,7.174,7.174v10.649H231.79V528.494A7.174,7.174,0,0,1,238.964,521.32Z" transform="translate(-165.275 -371.695)" opacity="0.1"/>
    <circle id="Elipse_15" data-name="Elipse 15" cx="1.426" cy="1.426" r="1.426" transform="translate(73.288 150.692)" fill="#3f3d56"/>
    <circle id="Elipse_16" data-name="Elipse 16" cx="1.426" cy="1.426" r="1.426" transform="translate(73.288 148.91)" fill="#3f3d56"/>
    <circle id="Elipse_17" data-name="Elipse 17" cx="1.426" cy="1.426" r="1.426" transform="translate(73.288 147.128)" fill="#3f3d56"/>
    <circle id="Elipse_18" data-name="Elipse 18" cx="1.426" cy="1.426" r="1.426" transform="translate(73.288 145.346)" fill="#3f3d56"/>
    <circle id="Elipse_19" data-name="Elipse 19" cx="1.426" cy="1.426" r="1.426" transform="translate(73.288 143.564)" fill="#3f3d56"/>
    <circle id="Elipse_20" data-name="Elipse 20" cx="1.426" cy="1.426" r="1.426" transform="translate(73.288 141.782)" fill="#3f3d56"/>
    <circle id="Elipse_21" data-name="Elipse 21" cx="1.426" cy="1.426" r="1.426" transform="translate(73.288 139.997)" fill="#3f3d56"/>
    <circle id="Elipse_22" data-name="Elipse 22" cx="1.426" cy="1.426" r="1.426" transform="translate(75.428 140.712)" fill="#3f3d56"/>
    <circle id="Elipse_23" data-name="Elipse 23" cx="1.426" cy="1.426" r="1.426" transform="translate(76.854 139.997)" fill="#3f3d56"/>
    <circle id="Elipse_24" data-name="Elipse 24" cx="1.426" cy="1.426" r="1.426" transform="translate(78.281 139.286)" fill="#3f3d56"/>
    <circle id="Elipse_25" data-name="Elipse 25" cx="1.426" cy="1.426" r="1.426" transform="translate(73.288 138.215)" fill="#3f3d56"/>
    <circle id="Elipse_26" data-name="Elipse 26" cx="1.426" cy="1.426" r="1.426" transform="translate(73.288 136.433)" fill="#3f3d56"/>
    <circle id="Elipse_27" data-name="Elipse 27" cx="1.426" cy="1.426" r="1.426" transform="translate(73.288 134.651)" fill="#3f3d56"/>
    <circle id="Elipse_28" data-name="Elipse 28" cx="1.426" cy="1.426" r="1.426" transform="translate(73.288 132.869)" fill="#3f3d56"/>
    <path id="Trazado_2191" data-name="Trazado 2191" d="M276.229,575.633q-.534.078-1.068.112a8.193,8.193,0,0,0,.918-.941,6.026,6.026,0,0,0-.861-1.673,2.932,2.932,0,0,1-1.148.362c-.353.052-.709.089-1.065.115a17.776,17.776,0,0,0,1.363-1.435,6.055,6.055,0,1,0,1.989,4.479,5.934,5.934,0,0,0-.092-1.042Z" transform="translate(-195.593 -445.938)" fill="#6c63ff"/>
    <path id="Trazado_2192" data-name="Trazado 2192" d="M308.458,611.084a2.766,2.766,0,0,1-1.2.4c-.353.052-.709.092-1.065.115a10.45,10.45,0,0,0,1.056-1.1,3.57,3.57,0,1,0,1.208.574Z" transform="translate(-223.067 -474.304)" fill="#6c63ff"/>
    <circle id="Elipse_29" data-name="Elipse 29" cx="1.426" cy="1.426" r="1.426" transform="translate(71.15 140.712)" fill="#3f3d56"/>
    <circle id="Elipse_30" data-name="Elipse 30" cx="1.426" cy="1.426" r="1.426" transform="translate(69.723 139.997)" fill="#3f3d56"/>
    <circle id="Elipse_31" data-name="Elipse 31" cx="1.426" cy="1.426" r="1.426" transform="translate(68.297 139.286)" fill="#3f3d56"/>
    <path id="Trazado_2193" data-name="Trazado 2193" d="M244.529,611.084a2.767,2.767,0,0,0,1.2.4c.353.052.709.092,1.065.115a10.161,10.161,0,0,1-1.056-1.1,3.57,3.57,0,1,1-1.208.574Z" transform="translate(-180.49 -474.304)" fill="#6c63ff"/>
    <path id="Trazado_2194" data-name="Trazado 2194" d="M238.943,525h3.475a7.174,7.174,0,0,1,7.174,7.174v9.432a1.217,1.217,0,0,1-1.217,1.217h-15.4a1.217,1.217,0,0,1-1.217-1.217v-9.432A7.174,7.174,0,0,1,238.943,525Z" transform="translate(-165.253 -374.319)" fill="#3f3d56"/>
    <g id="Grupo_3493" data-name="Grupo 3493" transform="translate(68.739 124.747)" opacity="0.1">
      <path id="Trazado_2195" data-name="Trazado 2195" d="M305.2,589.49a5.4,5.4,0,0,1-.459.436,4.666,4.666,0,0,0,.488-.043C305.222,589.751,305.214,589.619,305.2,589.49Z" transform="translate(-293.204 -584.151)"/>
      <path id="Trazado_2196" data-name="Trazado 2196" d="M297.28,580.6c.359-.023.712-.06,1.068-.112a3.444,3.444,0,0,0,.927-.253,6.3,6.3,0,0,0-.5-.824,2.158,2.158,0,0,1-.574.244A8.259,8.259,0,0,1,297.28,580.6Z" transform="translate(-287.885 -576.964)"/>
      <path id="Trazado_2197" data-name="Trazado 2197" d="M265.168,577.581a6.049,6.049,0,0,1,9.326-5.1l.092-.1a6.055,6.055,0,1,0-7.983,9.105,6.026,6.026,0,0,1-1.435-3.911Z" transform="translate(-264.54 -570.885)"/>
    </g>
    <g id="Grupo_3494" data-name="Grupo 3494" transform="translate(79.707 136.077)" opacity="0.1">
      <path id="Trazado_2198" data-name="Trazado 2198" d="M314.68,614.024c.356-.023.712-.06,1.065-.112a2.77,2.77,0,0,0,1.2-.4,3.567,3.567,0,0,1,1.435,2.525,3.271,3.271,0,0,0,.02-.376,3.553,3.553,0,0,0-1.435-2.87,2.767,2.767,0,0,1-1.2.4l-.287.037A7.277,7.277,0,0,1,314.68,614.024Z" transform="translate(-311.259 -612.096)"/>
      <path id="Trazado_2199" data-name="Trazado 2199" d="M306.324,611.082a2.94,2.94,0,0,1,.356.026c.187-.2.37-.41.557-.617a3.558,3.558,0,0,0-4.477,3.444,2.445,2.445,0,0,0,.017.356A3.564,3.564,0,0,1,306.324,611.082Z" transform="translate(-302.76 -610.37)"/>
    </g>
    <g id="Grupo_3495" data-name="Grupo 3495" transform="translate(62.584 136.077)" opacity="0.1">
      <path id="Trazado_2200" data-name="Trazado 2200" d="M246.809,614.024c-.356-.023-.712-.06-1.065-.112a2.77,2.77,0,0,1-1.2-.4,3.567,3.567,0,0,0-1.435,2.525,3.267,3.267,0,0,1-.02-.376,3.553,3.553,0,0,1,1.435-2.87,2.767,2.767,0,0,0,1.2.4l.287.037A6.794,6.794,0,0,0,246.809,614.024Z" transform="translate(-243.09 -612.096)"/>
      <path id="Trazado_2201" data-name="Trazado 2201" d="M253.283,611.082a3,3,0,0,0-.359.026c-.184-.2-.367-.41-.554-.617a3.558,3.558,0,0,1,4.477,3.444,2.449,2.449,0,0,1-.017.356A3.564,3.564,0,0,0,253.283,611.082Z" transform="translate(-249.707 -610.37)"/>
    </g>
    <path id="Trazado_2202" data-name="Trazado 2202" d="M149.227,696.5H121.191A1.191,1.191,0,0,1,120,695.309V682.04a1.191,1.191,0,0,1,1.7-1.076c8.055,3.822,16.733,5.134,26.975.06a1.194,1.194,0,0,1,1.722,1.065v13.2A1.191,1.191,0,0,1,149.227,696.5Z" transform="translate(-92.738 -524.547)" fill="#6c63ff"/>
    <path id="Trazado_2203" data-name="Trazado 2203" d="M149.227,696.5H121.191A1.191,1.191,0,0,1,120,695.309V682.04a1.191,1.191,0,0,1,1.7-1.076c8.055,3.822,16.733,5.134,26.975.06a1.194,1.194,0,0,1,1.722,1.065v13.2A1.191,1.191,0,0,1,149.227,696.5Z" transform="translate(-92.738 -524.547)" opacity="0.1"/>
    <ellipse id="Elipse_32" data-name="Elipse 32" cx="1.659" cy="2.172" rx="1.659" ry="2.172" transform="translate(40.617 157.522)" fill="#3f3d56"/>
    <ellipse id="Elipse_33" data-name="Elipse 33" cx="1.659" cy="2.172" rx="1.659" ry="2.172" transform="translate(40.617 154.868)" fill="#3f3d56"/>
    <ellipse id="Elipse_34" data-name="Elipse 34" cx="1.659" cy="2.172" rx="1.659" ry="2.172" transform="translate(40.617 152.21)" fill="#3f3d56"/>
    <ellipse id="Elipse_35" data-name="Elipse 35" cx="1.659" cy="2.172" rx="1.659" ry="2.172" transform="translate(40.617 149.556)" fill="#3f3d56"/>
    <ellipse id="Elipse_36" data-name="Elipse 36" cx="1.659" cy="2.172" rx="1.659" ry="2.172" transform="translate(40.617 146.899)" fill="#3f3d56"/>
    <ellipse id="Elipse_37" data-name="Elipse 37" cx="1.659" cy="2.172" rx="1.659" ry="2.172" transform="translate(40.617 144.241)" fill="#3f3d56"/>
    <ellipse id="Elipse_38" data-name="Elipse 38" cx="1.659" cy="2.172" rx="1.659" ry="2.172" transform="translate(40.617 141.587)" fill="#3f3d56"/>
    <path id="Trazado_2204" data-name="Trazado 2204" d="M158.713,541.75a8.449,8.449,0,0,0,.617-.91l-4.362-.717,4.718.034a7.952,7.952,0,0,0,.152-6.313l-6.328,3.283,5.837-4.3a7.952,7.952,0,1,0-13.134,8.9,7.777,7.777,0,0,0-.907,1.449l5.659,2.973-6.026-2.037a7.96,7.96,0,0,0,1.283,7.461,7.952,7.952,0,1,0,12.5,0,7.952,7.952,0,0,0,0-9.831Z" transform="translate(-110.216 -416.167)" fill="#6c63ff"/>
    <path id="Trazado_2205" data-name="Trazado 2205" d="M144.49,590.639a7.917,7.917,0,0,0,1.7,4.916,7.952,7.952,0,1,0,12.5,0C159.756,594.2,144.49,589.746,144.49,590.639Z" transform="translate(-110.2 -460.14)" opacity="0.1"/>
    <path id="Trazado_2206" data-name="Trazado 2206" d="M149.227,697.2H121.191A1.191,1.191,0,0,1,120,696.012V682.04a1.191,1.191,0,0,1,1.7-1.076c8.055,3.822,14.443,8.279,26.975.06a1.168,1.168,0,0,1,1.722,1.065v13.918A1.191,1.191,0,0,1,149.227,697.2Z" transform="translate(-92.738 -524.547)" fill="#6c63ff"/>
    <path id="Trazado_2207" data-name="Trazado 2207" d="M763.664,551.837,722.3,557.31l-2.069.273-20.222-10.8v-2.528l63.2-6.893Z" transform="translate(-499.133 -383.132)" fill="#9c9ca1"/>
    <path id="Trazado_2208" data-name="Trazado 2208" d="M740.85,561.063l44.809-5.283-.459,8.273-34.9,2.56Z" transform="translate(-528.253 -396.266)" fill="#939498"/>
    <path id="Trazado_2209" data-name="Trazado 2209" d="M747.294,707.979v2.715l-2.069.287L725,700.168V697.64l19.3,10.331A12.783,12.783,0,0,0,747.294,707.979Z" transform="translate(-524.126 -536.519)" opacity="0.4"/>
    <path id="Trazado_2210" data-name="Trazado 2210" d="M807.13,570.821l-9.286,43.059a2.749,2.749,0,0,0,3.048,3.309l58.75-7.777a2.749,2.749,0,0,0,2.25-1.859l12.675-38.224a2.755,2.755,0,0,0-2.743-3.616l-62.133,2.95A2.755,2.755,0,0,0,807.13,570.821Z" transform="translate(-576.022 -442.448)" fill="#3f3d56"/>
    <ellipse id="Elipse_39" data-name="Elipse 39" cx="2.497" cy="1.604" rx="2.497" ry="1.604" transform="translate(259.939 146.406) rotate(-84)" fill="#fff"/>
  </g>
</svg>
