<svg id="Grupo_3509" data-name="Grupo 3509" xmlns="http://www.w3.org/2000/svg" width="692.321" height="100.697" viewBox="0 0 692.321 100.697">
  <path id="Trazado_2224" data-name="Trazado 2224" d="M380.453,748.887a136.53,136.53,0,0,0-15.371-5.016,114.668,114.668,0,0,1-12.827-4.158,15.069,15.069,0,0,1-6.309-4.725c-1.5-1.974-2.26-4.79-2.26-8.371,0-5.86,1.768-10.4,5.407-13.89,3.606-3.458,9.324-5.207,16.973-5.207a47.664,47.664,0,0,1,9.167.953,43.768,43.768,0,0,1,7.133,2.067q3.033,1.221,7.284,3.171l2.136.981V704.648l-.848-.413a69.247,69.247,0,0,0-6.409-2.689,62.084,62.084,0,0,0-18.02-2.667c-9.463,0-17.254,2.507-23.156,7.456-5.981,5.01-9.013,11.738-9.013,20,0,5.763,1.385,10.441,4.122,13.907a24.392,24.392,0,0,0,9.96,7.568,115.731,115.731,0,0,0,14.876,4.665c6.88,1.88,11.689,3.561,14.3,5a14.763,14.763,0,0,1,8.011,14.08c0,7.082-2.073,11.916-6.333,14.782-4.39,2.957-10.718,4.457-18.811,4.457a53.742,53.742,0,0,1-12.57-1.925c-5.036-1.271-8.681-2.58-10.832-3.9l-2.3-1.413v10.34l.782.432c2.01,1.1,5.4,2.233,10.356,3.446a59.508,59.508,0,0,0,14.143,1.8c10.992,0,19.631-2.493,25.669-7.408,6.134-4.988,9.243-12.018,9.243-20.9,0-6.089-1.473-11.01-4.376-14.625A25.692,25.692,0,0,0,380.453,748.887Z" transform="translate(-334.341 -698.879)" fill="#fd5578"/>
  <path id="Trazado_2225" data-name="Trazado 2225" d="M427.161,705.418a42.047,42.047,0,0,0-23.364-6.539,41.222,41.222,0,0,0-22.833,6.535A44.187,44.187,0,0,0,365.274,723.5a58.457,58.457,0,0,0-5.6,25.838,59.856,59.856,0,0,0,5.383,25.786,41.508,41.508,0,0,0,39.094,24.457,40.835,40.835,0,0,0,22.658-6.539,44.108,44.108,0,0,0,15.618-18.011,58.148,58.148,0,0,0,5.568-25.693,60.285,60.285,0,0,0-5.383-25.89A42.913,42.913,0,0,0,427.161,705.418Zm6.505,66.63a33.407,33.407,0,0,1-12.308,14.115,32.24,32.24,0,0,1-17.208,4.768,32.492,32.492,0,0,1-30.156-18.889c-3.114-6.249-4.692-13.892-4.692-22.709,0-8.729,1.569-16.348,4.662-22.646a33.961,33.961,0,0,1,12.483-14.3,33.527,33.527,0,0,1,34.8,0,33.849,33.849,0,0,1,12.417,14.291c3.072,6.306,4.629,13.925,4.629,22.651C438.3,758.15,436.738,765.793,433.667,772.048Z" transform="translate(-283.234 -698.879)" fill="#fd5578"/>
  <path id="Trazado_2226" data-name="Trazado 2226" d="M440.3,748.887a136.52,136.52,0,0,0-15.371-5.016,114.647,114.647,0,0,1-12.827-4.158,15.09,15.09,0,0,1-6.309-4.725c-1.5-1.974-2.26-4.79-2.26-8.371,0-5.86,1.771-10.4,5.407-13.89,3.606-3.458,9.324-5.207,16.976-5.207a47.66,47.66,0,0,1,9.164.953,43.669,43.669,0,0,1,7.133,2.067q3.033,1.221,7.284,3.171l2.139.981V704.648l-.851-.413a69.266,69.266,0,0,0-6.409-2.689,62.084,62.084,0,0,0-18.02-2.667c-9.462,0-17.253,2.507-23.155,7.456-5.981,5.01-9.013,11.738-9.013,20,0,5.763,1.385,10.441,4.122,13.907a24.392,24.392,0,0,0,9.96,7.568,115.87,115.87,0,0,0,14.876,4.665c6.88,1.88,11.69,3.561,14.3,5a14.763,14.763,0,0,1,8.011,14.08c0,7.082-2.073,11.916-6.33,14.782-4.393,2.957-10.721,4.457-18.813,4.457a53.743,53.743,0,0,1-12.571-1.925c-5.036-1.271-8.681-2.58-10.832-3.9l-2.3-1.413v10.34l.779.432c2.01,1.1,5.4,2.233,10.356,3.446a59.511,59.511,0,0,0,14.143,1.8c10.992,0,19.631-2.493,25.669-7.408,6.135-4.988,9.242-12.018,9.242-20.9,0-6.089-1.473-11.01-4.375-14.625A25.692,25.692,0,0,0,440.3,748.887Z" transform="translate(-213.602 -698.879)" fill="#fd5578"/>
  <path id="Trazado_2227" data-name="Trazado 2227" d="M417.473,708.292h32.418v88.256H459.1V708.292h32.559v-8.784H417.473Z" transform="translate(-166.631 -697.61)" fill="#fd5578"/>
  <path id="Trazado_2228" data-name="Trazado 2228" d="M455.554,751.191h43.39v-8.644h-43.39V708.153h47.4v-8.646h-56.6v97.04h59.347v-8.643H455.554Z" transform="translate(-108.378 -697.61)" fill="#fd5578"/>
  <path id="Trazado_2229" data-name="Trazado 2229" d="M516.484,757.169h21.8v31.538a57.956,57.956,0,0,1-15.79,2.5c-13.358,0-23.789-3.6-31.01-10.712s-10.872-17.278-10.872-30.256c0-9.284,1.974-17.2,5.86-23.538a36.942,36.942,0,0,1,15.376-14.2,46.851,46.851,0,0,1,20.787-4.7,57.32,57.32,0,0,1,10.344,1.029,55.637,55.637,0,0,1,9.031,2.32l2.034.757V702.79l-.8-.429a30.983,30.983,0,0,0-7.975-2.4,60.864,60.864,0,0,0-11.792-1.083A57.059,57.059,0,0,0,496.5,705.17a46.132,46.132,0,0,0-18.747,18.238c-4.493,7.884-6.774,17.293-6.774,27.962,0,14.945,4.523,26.846,13.443,35.373,8.9,8.515,21.3,12.833,36.873,12.833a81.719,81.719,0,0,0,15.368-1.469c5.371-1.036,8.636-2.152,10.28-3.519l.543-.455V748.244h-31Z" transform="translate(-58.681 -698.879)" fill="#fd5578"/>
  <path id="Trazado_2230" data-name="Trazado 2230" d="M568.472,756.432c0,10.256.193,18.409.573,24.335l-15-21.487-42.787-59.771h-7.628v97.04h9.206v-53.2c0-12.317-.169-21.746-.5-28.144l57.708,81.341h7.634v-97.04h-9.206Z" transform="translate(7.191 -697.61)" fill="#fd5578"/>
  <path id="Trazado_2231" data-name="Trazado 2231" d="M617.45,723.443A42.905,42.905,0,0,0,602,705.418a42.043,42.043,0,0,0-23.36-6.539,41.209,41.209,0,0,0-22.833,6.535,44.145,44.145,0,0,0-15.69,18.081,58.451,58.451,0,0,0-5.6,25.838,59.9,59.9,0,0,0,5.383,25.786,41.509,41.509,0,0,0,39.093,24.457,40.843,40.843,0,0,0,22.66-6.539,44.124,44.124,0,0,0,15.616-18.011,58.112,58.112,0,0,0,5.567-25.693A60.283,60.283,0,0,0,617.45,723.443Zm-8.94,48.6A33.45,33.45,0,0,1,596.2,786.163a32.259,32.259,0,0,1-17.211,4.768,32.492,32.492,0,0,1-30.155-18.889c-3.112-6.249-4.693-13.892-4.693-22.709,0-8.729,1.57-16.348,4.663-22.646a33.987,33.987,0,0,1,12.486-14.3,32.155,32.155,0,0,1,13.262-4.6V745.7h7.081V707.717a32.1,32.1,0,0,1,14.457,4.674,33.854,33.854,0,0,1,12.417,14.291c3.071,6.306,4.628,13.925,4.628,22.651C613.135,758.15,611.578,765.793,608.51,772.048Z" transform="translate(69.488 -698.879)" fill="#fd5578"/>
</svg>
