<svg xmlns="http://www.w3.org/2000/svg" width="391" height="391" viewBox="0 0 391 391">
  <g id="Grupo_3512" data-name="Grupo 3512" transform="translate(1121 580)">
    <circle id="Elipse_40" data-name="Elipse 40" cx="195.5" cy="195.5" r="195.5" transform="translate(-1121 -580)" fill="#fff"/>
    <g id="Capa_1" data-name="Capa 1" transform="translate(-1049.111 -494.78)">
      <path id="Trazado_2221" data-name="Trazado 2221" d="M310.281,46.713V70.6L229.523,23.863v147.16l-83.8,49.536L63.06,172.93V82.278L83.642,69.707V167.6l63.241,36.193,61.311-35.807V10.279L228,0Z" transform="translate(-63.06)" fill="#fd5578"/>
      <path id="Trazado_2222" data-name="Trazado 2222" d="M211.211,29.36,231.769,40.8v89.131L149.1,179.078,118.63,159.654l20.2-11.051,9.531,6.853,63.989-36.193Z" transform="translate(15.453 41.482)" fill="#fd5578"/>
      <path id="Trazado_2223" data-name="Trazado 2223" d="M63.06,70.842v-23.6L145.725,0l19.424,10.279V160l17.155,8.759-19.448,12.933-17.9-10.279V23.622Z" transform="translate(-63.06)" fill="#fe99ae"/>
    </g>
  </g>
</svg>
